<svg width="128" height="128" viewBox="0 0 128 128" fill="none" xmlns="http://www.w3.org/2000/svg">
  <defs>
    <linearGradient id="bg" x1="18" y1="12" x2="118" y2="116" gradientUnits="userSpaceOnUse">
      <stop stop-color="#0C1428"/>
      <stop offset="1" stop-color="#090D1F"/>
    </linearGradient>
    <linearGradient id="frame" x1="16" y1="10" x2="112" y2="118" gradientUnits="userSpaceOnUse">
      <stop stop-color="#41E4C8"/>
      <stop offset="1" stop-color="#7AF7DF"/>
    </linearGradient>
    <linearGradient id="bubble" x1="42" y1="36" x2="92" y2="90" gradientUnits="userSpaceOnUse">
      <stop stop-color="#4CF0CD"/>
      <stop offset="1" stop-color="#1BBF99"/>
    </linearGradient>
  </defs>
  <rect x="10" y="10" width="108" height="108" rx="26" fill="url(#bg)" stroke="url(#frame)" stroke-width="6"/>
  <path d="M34 42C34 38.6863 36.6863 36 40 36H92C95.3137 36 98 38.6863 98 42V82C98 85.3137 95.3137 88 92 88H62L52 96L49 88H40C36.6863 88 34 85.3137 34 82V42Z" fill="url(#bubble)"/>
  <path d="M44 44C44 43.4477 44.4477 43 45 43H87C87.5523 43 88 43.4477 88 44V74C88 76.2091 89.7909 78 92 78H94C94.5523 78 95 78.4477 95 79V80C95 82.2091 93.2091 84 91 84H47C45.3431 84 44 82.6569 44 81V44Z" fill="#0F1C2E" fill-opacity="0.55"/>
  <path d="M96 52C96 51.4477 96.4477 51 97 51H101V72H97C96.4477 72 96 71.5523 96 71V52Z" fill="#F8BE5C" fill-opacity="0.35"/>
  <path d="M72 50L56 64L72 78" stroke="#F8C266" stroke-width="8" stroke-linecap="round" stroke-linejoin="round"/>
  <path d="M86 50L102 64L86 78" stroke="#F8C266" stroke-width="8" stroke-linecap="round" stroke-linejoin="round"/>
  <circle cx="84" cy="48" r="4" fill="#7BDFFF" fill-opacity="0.9"/>
  <circle cx="93" cy="56" r="3.5" fill="#C6F8FF" fill-opacity="0.9"/>
</svg>
